<svg width="154" height="15" viewBox="0 0 154 15" fill="none" xmlns="http://www.w3.org/2000/svg">
<path d="M3.72656 7.35156H2.375V12H0.03125V0.625H2.375V5.17969H3.44531L6.22656 0.625H9.08594L5.57812 6.00781L9.45312 12H6.65625L3.72656 7.35156ZM12.7031 7.99219V12H10.3594V0.625H14.7969C15.651 0.625 16.401 0.78125 17.0469 1.09375C17.6979 1.40625 18.1979 1.85156 18.5469 2.42969C18.8958 3.0026 19.0703 3.65625 19.0703 4.39062C19.0703 5.50521 18.6875 6.38542 17.9219 7.03125C17.1615 7.67188 16.1068 7.99219 14.7578 7.99219H12.7031ZM12.7031 6.09375H14.7969C15.4167 6.09375 15.888 5.94792 16.2109 5.65625C16.5391 5.36458 16.7031 4.94792 16.7031 4.40625C16.7031 3.84896 16.5391 3.39844 16.2109 3.05469C15.8828 2.71094 15.4297 2.53385 14.8516 2.52344H12.7031V6.09375ZM27.5312 7.07031H23.0312V10.1172H28.3125V12H20.6875V0.625H28.2969V2.52344H23.0312V5.23438H27.5312V7.07031ZM40.2344 14.7969H38.0703V12H31.2109V14.7891H28.9922L28.8672 10.1172H29.7266C30.1901 9.73177 30.5469 9.16667 30.7969 8.42188C31.0521 7.67188 31.224 6.74479 31.3125 5.64062L31.6406 0.625H39.0938V10.1172H40.4219L40.2344 14.7969ZM32.4141 10.1172H36.75V2.52344H33.8672L33.6719 5.51562C33.5156 7.52083 33.0964 9.05469 32.4141 10.1172ZM48.4766 0.625H50.8281V12H48.4766V4.44531L43.9219 12H41.5781V0.625H43.9219V8.19531L48.4766 0.625ZM61.1875 2.52344H57.7031V12H55.3594V2.52344H51.9219V0.625H61.1875V2.52344ZM68.0156 9.65625H63.9062L63.125 12H60.6328L64.8672 0.625H67.0391L71.2969 12H68.8047L68.0156 9.65625ZM64.5391 7.75781H67.3828L65.9531 3.5L64.5391 7.75781ZM72.3594 12V0.625H76.3438C77.724 0.625 78.7708 0.890625 79.4844 1.42188C80.1979 1.94792 80.5547 2.72135 80.5547 3.74219C80.5547 4.29948 80.4115 4.79167 80.125 5.21875C79.8385 5.64062 79.4401 5.95052 78.9297 6.14844C79.513 6.29427 79.9714 6.58854 80.3047 7.03125C80.6432 7.47396 80.8125 8.01562 80.8125 8.65625C80.8125 9.75 80.4635 10.5781 79.7656 11.1406C79.0677 11.7031 78.0729 11.9896 76.7812 12H72.3594ZM74.7031 7.04688V10.1172H76.7109C77.263 10.1172 77.6927 9.98698 78 9.72656C78.3125 9.46094 78.4688 9.09635 78.4688 8.63281C78.4688 7.59115 77.9297 7.0625 76.8516 7.04688H74.7031ZM74.7031 5.39062H76.4375C77.6198 5.36979 78.2109 4.89844 78.2109 3.97656C78.2109 3.46094 78.0599 3.09115 77.7578 2.86719C77.4609 2.63802 76.9896 2.52344 76.3438 2.52344H74.7031V5.39062ZM90.9219 2.52344H87.4375V12H85.0938V2.52344H81.6562V0.625H90.9219V2.52344ZM101.391 6.57031C101.391 7.6901 101.193 8.67188 100.797 9.51562C100.401 10.3594 99.8333 11.0104 99.0938 11.4688C98.3594 11.9271 97.5156 12.1562 96.5625 12.1562C95.6198 12.1562 94.7786 11.9297 94.0391 11.4766C93.2995 11.0234 92.7266 10.3776 92.3203 9.53906C91.9141 8.69531 91.7083 7.72656 91.7031 6.63281V6.07031C91.7031 4.95052 91.9036 3.96615 92.3047 3.11719C92.7109 2.26302 93.2812 1.60938 94.0156 1.15625C94.7552 0.697917 95.599 0.46875 96.5469 0.46875C97.4948 0.46875 98.3359 0.697917 99.0703 1.15625C99.8099 1.60938 100.38 2.26302 100.781 3.11719C101.188 3.96615 101.391 4.94792 101.391 6.0625V6.57031ZM99.0156 6.05469C99.0156 4.86198 98.8021 3.95573 98.375 3.33594C97.9479 2.71615 97.3385 2.40625 96.5469 2.40625C95.7604 2.40625 95.1536 2.71354 94.7266 3.32812C94.2995 3.9375 94.0833 4.83333 94.0781 6.01562V6.57031C94.0781 7.73177 94.2917 8.63281 94.7188 9.27344C95.1458 9.91406 95.7604 10.2344 96.5625 10.2344C97.349 10.2344 97.9531 9.92708 98.375 9.3125C98.7969 8.69271 99.0104 7.79167 99.0156 6.60938V6.05469ZM108.703 3.75781C108.703 3.32552 108.534 2.98698 108.195 2.74219C107.857 2.49219 107.409 2.36719 106.852 2.36719C106.352 2.36719 105.935 2.49219 105.602 2.74219C105.273 2.98698 105.109 3.30729 105.109 3.70312H102.766C102.766 3.08854 102.938 2.53646 103.281 2.04688C103.63 1.55208 104.122 1.16667 104.758 0.890625C105.398 0.614583 106.096 0.476562 106.852 0.476562C108.164 0.476562 109.193 0.757812 109.938 1.32031C110.682 1.88281 111.055 2.67969 111.055 3.71094C111.055 4.21615 110.901 4.6849 110.594 5.11719C110.292 5.54948 109.859 5.89583 109.297 6.15625C109.922 6.375 110.401 6.70833 110.734 7.15625C111.068 7.59896 111.234 8.15104 111.234 8.8125C111.234 9.83333 110.833 10.6458 110.031 11.25C109.234 11.849 108.174 12.1484 106.852 12.1484C106.023 12.1484 105.279 12.0078 104.617 11.7266C103.956 11.4401 103.453 11.0521 103.109 10.5625C102.771 10.0677 102.602 9.49479 102.602 8.84375H104.961C104.961 9.25 105.138 9.59115 105.492 9.86719C105.846 10.138 106.299 10.2734 106.852 10.2734C107.477 10.2734 107.969 10.1328 108.328 9.85156C108.693 9.57031 108.875 9.21354 108.875 8.78125C108.875 8.1875 108.714 7.76302 108.391 7.50781C108.068 7.2474 107.596 7.11719 106.977 7.11719H105.578V5.28125H107.023C108.143 5.26562 108.703 4.75781 108.703 3.75781ZM119.391 9.65625H115.281L114.5 12H112.008L116.242 0.625H118.414L122.672 12H120.18L119.391 9.65625ZM115.914 7.75781H118.758L117.328 3.5L115.914 7.75781ZM133.125 0.625V12H130.773V2.52344H127.742L127.555 6.53906C127.477 7.89323 127.305 8.96094 127.039 9.74219C126.773 10.5182 126.385 11.0885 125.875 11.4531C125.365 11.8125 124.667 11.9948 123.781 12H123.172V10.1172L123.562 10.0781C124.151 10 124.57 9.66146 124.82 9.0625C125.076 8.45833 125.237 7.38542 125.305 5.84375L125.5 0.625H133.125ZM144.516 6.57031C144.516 7.6901 144.318 8.67188 143.922 9.51562C143.526 10.3594 142.958 11.0104 142.219 11.4688C141.484 11.9271 140.641 12.1562 139.688 12.1562C138.745 12.1562 137.904 11.9297 137.164 11.4766C136.424 11.0234 135.852 10.3776 135.445 9.53906C135.039 8.69531 134.833 7.72656 134.828 6.63281V6.07031C134.828 4.95052 135.029 3.96615 135.43 3.11719C135.836 2.26302 136.406 1.60938 137.141 1.15625C137.88 0.697917 138.724 0.46875 139.672 0.46875C140.62 0.46875 141.461 0.697917 142.195 1.15625C142.935 1.60938 143.505 2.26302 143.906 3.11719C144.312 3.96615 144.516 4.94792 144.516 6.0625V6.57031ZM142.141 6.05469C142.141 4.86198 141.927 3.95573 141.5 3.33594C141.073 2.71615 140.464 2.40625 139.672 2.40625C138.885 2.40625 138.279 2.71354 137.852 3.32812C137.424 3.9375 137.208 4.83333 137.203 6.01562V6.57031C137.203 7.73177 137.417 8.63281 137.844 9.27344C138.271 9.91406 138.885 10.2344 139.688 10.2344C140.474 10.2344 141.078 9.92708 141.5 9.3125C141.922 8.69271 142.135 7.79167 142.141 6.60938V6.05469ZM153.68 2.52344H148.578V12H146.234V0.625H153.68V2.52344Z" fill="white"/>
</svg>
