<svg width="166" height="15" viewBox="0 0 166 15" fill="none" xmlns="http://www.w3.org/2000/svg">
<path d="M7.00568 12L3.22159 7.03977H2.47159V12H0.0113636V0.363636H2.47159V5.01136H3.04545L7.30682 0.363636H10.4773L5.39205 5.91477L10.0795 12H7.00568ZM11.777 12V0.363636H16.3679C17.2505 0.363636 18.0024 0.532197 18.6236 0.869318C19.2448 1.20265 19.7183 1.66667 20.044 2.26136C20.3736 2.85227 20.5384 3.53409 20.5384 4.30682C20.5384 5.07955 20.3717 5.76136 20.0384 6.35227C19.705 6.94318 19.2221 7.40341 18.5895 7.73295C17.9607 8.0625 17.1993 8.22727 16.3054 8.22727H13.3793V6.25568H15.9077C16.3812 6.25568 16.7713 6.17424 17.0781 6.01136C17.3887 5.8447 17.6198 5.61553 17.7713 5.32386C17.9266 5.02841 18.0043 4.68939 18.0043 4.30682C18.0043 3.92045 17.9266 3.58333 17.7713 3.29545C17.6198 3.00379 17.3887 2.77841 17.0781 2.61932C16.7675 2.45644 16.3736 2.375 15.8963 2.375H14.2372V12H11.777ZM22.1364 12V0.363636H29.9773V2.39205H24.5966V5.16477H29.5739V7.19318H24.5966V9.97159H30V12H22.1364ZM31.3026 14.8068V10.0398H32.0923C32.3613 9.84659 32.6075 9.57386 32.831 9.22159C33.0545 8.86553 33.2457 8.375 33.4048 7.75C33.5639 7.12121 33.6776 6.29924 33.7457 5.28409L34.0753 0.363636H41.7741V10.0398H43.0469V14.7955H40.6832V12H33.6662V14.8068H31.3026ZM34.9332 10.0398H39.4105V2.39205H36.2912L36.1094 5.28409C36.0601 6.05303 35.9787 6.73485 35.8651 7.32955C35.7552 7.92424 35.6207 8.44508 35.4616 8.89205C35.3063 9.33523 35.1302 9.7178 34.9332 10.0398ZM44.5426 0.363636H46.9972V7.68182H47.0938L52.1222 0.363636H54.2756V12H51.8153V4.67614H51.7301L46.6733 12H44.5426V0.363636ZM55.8651 2.39205V0.363636H65.4219V2.39205H61.8594V12H59.4276V2.39205H55.8651ZM67.5639 12H64.9276L68.9446 0.363636H72.1151L76.1264 12H73.4901L70.5753 3.02273H70.4844L67.5639 12ZM67.3991 7.42614H73.6264V9.34659H67.3991V7.42614ZM77.527 12V0.363636H82.1861C83.0421 0.363636 83.7562 0.49053 84.3281 0.744318C84.9001 0.998106 85.33 1.35038 85.6179 1.80114C85.9058 2.24811 86.0497 2.76326 86.0497 3.34659C86.0497 3.80114 85.9588 4.20076 85.777 4.54545C85.5952 4.88636 85.3452 5.16667 85.027 5.38636C84.7126 5.60227 84.3527 5.75568 83.9474 5.84659V5.96023C84.3906 5.97917 84.8054 6.10417 85.1918 6.33523C85.5819 6.56629 85.8982 6.89015 86.1406 7.30682C86.383 7.7197 86.5043 8.21212 86.5043 8.78409C86.5043 9.40152 86.3509 9.95265 86.044 10.4375C85.741 10.9186 85.2921 11.2992 84.6974 11.5795C84.1027 11.8598 83.3698 12 82.4986 12H77.527ZM79.9872 9.98864H81.9929C82.6785 9.98864 83.1785 9.85795 83.4929 9.59659C83.8073 9.33144 83.9645 8.97917 83.9645 8.53977C83.9645 8.2178 83.8868 7.93371 83.7315 7.6875C83.5762 7.44129 83.3546 7.24811 83.0668 7.10795C82.7827 6.9678 82.4437 6.89773 82.0497 6.89773H79.9872V9.98864ZM79.9872 5.23295H81.8111C82.1482 5.23295 82.4474 5.17424 82.7088 5.05682C82.974 4.93561 83.1823 4.76515 83.3338 4.54545C83.4891 4.32576 83.5668 4.0625 83.5668 3.75568C83.5668 3.33523 83.4171 2.99621 83.1179 2.73864C82.8224 2.48106 82.402 2.35227 81.8565 2.35227H79.9872V5.23295ZM87.6619 2.39205V0.363636H97.2188V2.39205H93.6562V12H91.2244V2.39205H87.6619ZM108.97 6.18182C108.97 7.45076 108.73 8.5303 108.249 9.42045C107.771 10.3106 107.12 10.9905 106.294 11.4602C105.472 11.9261 104.548 12.1591 103.521 12.1591C102.487 12.1591 101.559 11.9242 100.737 11.4545C99.9152 10.9848 99.2656 10.3049 98.7884 9.41477C98.3111 8.52462 98.0724 7.44697 98.0724 6.18182C98.0724 4.91288 98.3111 3.83333 98.7884 2.94318C99.2656 2.05303 99.9152 1.375 100.737 0.909091C101.559 0.439394 102.487 0.204545 103.521 0.204545C104.548 0.204545 105.472 0.439394 106.294 0.909091C107.12 1.375 107.771 2.05303 108.249 2.94318C108.73 3.83333 108.97 4.91288 108.97 6.18182ZM106.476 6.18182C106.476 5.35985 106.353 4.66667 106.107 4.10227C105.864 3.53788 105.521 3.10985 105.078 2.81818C104.635 2.52652 104.116 2.38068 103.521 2.38068C102.927 2.38068 102.408 2.52652 101.964 2.81818C101.521 3.10985 101.177 3.53788 100.93 4.10227C100.688 4.66667 100.567 5.35985 100.567 6.18182C100.567 7.00379 100.688 7.69697 100.93 8.26136C101.177 8.82576 101.521 9.25379 101.964 9.54545C102.408 9.83712 102.927 9.98295 103.521 9.98295C104.116 9.98295 104.635 9.83712 105.078 9.54545C105.521 9.25379 105.864 8.82576 106.107 8.26136C106.353 7.69697 106.476 7.00379 106.476 6.18182ZM115.026 12.1591C114.177 12.1591 113.421 12.0133 112.759 11.7216C112.099 11.4261 111.579 11.0208 111.196 10.5057C110.817 9.98674 110.622 9.38826 110.611 8.71023H113.088C113.103 8.99432 113.196 9.24432 113.366 9.46023C113.541 9.67235 113.772 9.83712 114.06 9.95455C114.348 10.072 114.671 10.1307 115.031 10.1307C115.406 10.1307 115.738 10.0644 116.026 9.93182C116.313 9.79924 116.539 9.61553 116.702 9.38068C116.865 9.14583 116.946 8.875 116.946 8.56818C116.946 8.25758 116.859 7.98295 116.685 7.74432C116.514 7.50189 116.268 7.3125 115.946 7.17614C115.628 7.03977 115.249 6.97159 114.81 6.97159H113.724V5.16477H114.81C115.181 5.16477 115.509 5.10038 115.793 4.97159C116.08 4.8428 116.304 4.66477 116.463 4.4375C116.622 4.20644 116.702 3.9375 116.702 3.63068C116.702 3.33902 116.632 3.08333 116.491 2.86364C116.355 2.64015 116.162 2.46591 115.912 2.34091C115.666 2.21591 115.378 2.15341 115.048 2.15341C114.715 2.15341 114.41 2.21402 114.134 2.33523C113.857 2.45265 113.635 2.62121 113.469 2.84091C113.302 3.06061 113.213 3.31818 113.202 3.61364H110.844C110.855 2.94318 111.046 2.35227 111.418 1.84091C111.789 1.32955 112.289 0.929924 112.918 0.642045C113.55 0.350378 114.264 0.204545 115.06 0.204545C115.863 0.204545 116.565 0.350378 117.168 0.642045C117.77 0.933712 118.238 1.32765 118.571 1.82386C118.908 2.31629 119.075 2.86932 119.071 3.48295C119.075 4.13447 118.872 4.67803 118.463 5.11364C118.058 5.54924 117.529 5.82576 116.878 5.94318V6.03409C117.734 6.14394 118.385 6.44129 118.832 6.92614C119.283 7.4072 119.507 8.00947 119.503 8.73295C119.507 9.39583 119.315 9.98485 118.929 10.5C118.546 11.0152 118.018 11.4205 117.344 11.7159C116.67 12.0114 115.897 12.1591 115.026 12.1591ZM123.345 12H120.709L124.726 0.363636H127.896L131.908 12H129.271L126.357 3.02273H126.266L123.345 12ZM123.18 7.42614H129.408V9.34659H123.18V7.42614ZM132.678 12V10.0227L133.007 9.99432C133.431 9.96023 133.774 9.79924 134.036 9.51136C134.297 9.2197 134.492 8.75568 134.621 8.11932C134.753 7.47917 134.839 6.61932 134.876 5.53977L135.07 0.363636H142.967V12H140.575V2.33523H137.354L137.172 6.38636C137.111 7.68939 136.956 8.75379 136.706 9.57955C136.46 10.4053 136.066 11.0152 135.524 11.4091C134.986 11.803 134.25 12 133.314 12H132.678ZM155.689 6.18182C155.689 7.45076 155.448 8.5303 154.967 9.42045C154.49 10.3106 153.839 10.9905 153.013 11.4602C152.191 11.9261 151.267 12.1591 150.24 12.1591C149.206 12.1591 148.278 11.9242 147.456 11.4545C146.634 10.9848 145.984 10.3049 145.507 9.41477C145.03 8.52462 144.791 7.44697 144.791 6.18182C144.791 4.91288 145.03 3.83333 145.507 2.94318C145.984 2.05303 146.634 1.375 147.456 0.909091C148.278 0.439394 149.206 0.204545 150.24 0.204545C151.267 0.204545 152.191 0.439394 153.013 0.909091C153.839 1.375 154.49 2.05303 154.967 2.94318C155.448 3.83333 155.689 4.91288 155.689 6.18182ZM153.195 6.18182C153.195 5.35985 153.071 4.66667 152.825 4.10227C152.583 3.53788 152.24 3.10985 151.797 2.81818C151.354 2.52652 150.835 2.38068 150.24 2.38068C149.645 2.38068 149.126 2.52652 148.683 2.81818C148.24 3.10985 147.895 3.53788 147.649 4.10227C147.407 4.66667 147.286 5.35985 147.286 6.18182C147.286 7.00379 147.407 7.69697 147.649 8.26136C147.895 8.82576 148.24 9.25379 148.683 9.54545C149.126 9.83712 149.645 9.98295 150.24 9.98295C150.835 9.98295 151.354 9.83712 151.797 9.54545C152.24 9.25379 152.583 8.82576 152.825 8.26136C153.071 7.69697 153.195 7.00379 153.195 6.18182ZM165.233 0.363636V2.39205H159.972V12H157.511V0.363636H165.233Z" fill="#222222"/>
</svg>
