<?xml version="1.0" encoding="utf-8"?>
<!-- Generator: Adobe Illustrator 22.0.1, SVG Export Plug-In . SVG Version: 6.00 Build 0)  -->
<svg version="1.1" id="Слой_1" xmlns="http://www.w3.org/2000/svg" xmlns:xlink="http://www.w3.org/1999/xlink" x="0px" y="0px"
	 viewBox="0 0 72 216" style="enable-background:new 0 0 72 216;" xml:space="preserve">
<style type="text/css">
	.st0{fill:#DB6E0A;}
</style>
<g id="Слой_x0020_1">
	<path class="st0" d="M2.4,0h2.2L0,8v0l0,0V4.1l0,0v0C0,4.2,2.4,0,2.4,0z M0,72v-1.3l0,0v0L40.8,0H43L1.4,72h0L0,74.6
		C0,74.6,0,72,0,72z M0,66.2v-3.8l0,0v0L36,0h2.2L0,66.2L0,66.2C0,66.2,0,66.2,0,66.2z M0,57.9V54l0,0v0L31.2,0h2.2L0,57.9L0,57.9
		C0,57.9,0,57.9,0,57.9z M0,49.6v-3.8l0,0v0L26.4,0h2.2L0,49.6L0,49.6C0,49.6,0,49.6,0,49.6z M0,41.2v-3.8l0,0v0L21.6,0h2.2L0,41.2
		L0,41.2C0,41.2,0,41.2,0,41.2z M0,33v-3.8l0,0v0L16.8,0H19L0,33L0,33C0,32.9,0,33,0,33z M0,24.6v-3.8l0,0v0L12,0h2.2L0,24.6L0,24.6
		C0,24.6,0,24.6,0,24.6z M0,16.3v-3.8l0,0v0L7.2,0h2.2L0,16.3L0,16.3C0,16.3,0,16.3,0,16.3z M0,216v-3.8l3.4-5.8v0l36-62.3h0
		L72,87.4v3.8L41.5,144h0L3.4,210.2v0L0,216L0,216L0,216z M0,207.7v-3.8l3.4-5.8v0l31.2-54h-0.1L72,79v3.8L36.7,144h0.1L3.4,201.9v0
		C3.4,201.9,0,207.7,0,207.7z M0,199.4v-3.8l3.4-5.8v0L29.7,144h0l41.6-72h-0.1l0.8-1.4V72h0v2.6L31.9,144h0L3.4,193.5v0
		C3.4,193.6,0,199.4,0,199.4z M0,191.1v-3.8l3.4-5.8v0L25,144h-0.1l41.6-72h0l5.6-9.6v3.8L68.6,72h0l-41.6,72h0.1L3.4,185.3v0
		C3.4,185.2,0,191.1,0,191.1z M0,182.8v-3.8l3.4-5.8v0L20.1,144h0l41.6-72h-0.1L72,54v3.8L63.8,72h0.1l-41.6,72h0l-19,32.9v0
		C3.4,176.9,0,182.8,0,182.8z M0,174.4v-3.8l3.4-5.8v0l12-20.8h-0.1l41.6-72h0L72,45.7v3.8L59,72h0l-41.6,72h0.1L3.4,168.6v0
		C3.4,168.6,0,174.4,0,174.4z M0,166.2v-3.8l3.4-5.8v0l7.2-12.4h0l41.6-72H52l20-34.6v3.8L54.2,72h0.1l-41.6,72h0l-9.4,16.3v0
		C3.4,160.3,0,166.2,0,166.2z M0,157.8V154l3.4-5.8v0l2.4-4.2H5.7l41.6-72h0L72,29.1v3.8L49.4,72h0L7.9,144H8l-4.6,8v0
		C3.4,152,0,157.8,0,157.8z M0,149.5v-3.8l1-1.7H0.9l0.8-1.4v0L42.5,72h-0.1L72,20.8v3.8L44.6,72h0.1L3.1,144h0
		C3.2,144,0,149.5,0,149.5z M3.4,214.6L3.4,214.6L44.2,144h-0.1L72,95.7v3.8L46.3,144h0.1L4.8,216H3.4H2.6
		C2.6,216,3.4,214.6,3.4,214.6z M0,141.1v-3.8l1.7-2.9v0l36-62.3h0L72,12.5v3.8L39.8,72h0L1.7,138.2v0L0,141.1L0,141.1z M0,132.8
		v-3.8l1.7-2.9v0l31.2-54h-0.1L72,4.1V8L35,72h0.1L1.7,129.9v0C1.7,129.9,0,132.8,0,132.8z M0,124.5v-3.8l1.7-2.9v0L28.1,72h0
		L69.6,0h2.2L30.2,72h0L1.7,121.5v0C1.7,121.6,0,124.5,0,124.5z M0,116.2v-3.8l1.7-2.9v0L23.3,72h-0.1L64.8,0H67L25.4,72h0.1
		L1.7,113.3v0C1.7,113.2,0,116.2,0,116.2z M0,107.9V104l1.7-2.9v0L18.5,72h0L60,0h2.2L20.6,72h0l-19,32.9v0
		C1.7,104.9,0,107.9,0,107.9z M0,99.5v-3.8l1.7-2.9v0l12-20.8h-0.1L55.2,0h2.2L15.8,72h0.1L1.7,96.6v0C1.7,96.6,0,99.5,0,99.5z
		 M0,91.2v-3.8l1.7-2.9v0L8.9,72h0L50.4,0h2.2L11,72h0L1.7,88.3v0C1.7,88.3,0,91.2,0,91.2z M0,82.9v-3.8l1.7-2.9v0L4.1,72H4L45.6,0
		h2.2L6.2,72h0.1l-4.6,8v0C1.7,80,0,82.9,0,82.9z M72,145.6v3.8L33.6,216h-2.2L72,145.6z M72,153.9v3.8L38.4,216h-2.2L72,153.9z
		 M72,162.3v3.8L43.2,216H41L72,162.3z M72,170.6v3.8L48,216h-2.2L72,170.6z M72,178.9v3.8L52.8,216h-2.2L72,178.9z M72,187.2v3.8
		l-14.4,25h-2.2L72,187.2z M72,195.5v3.8L62.4,216h-2.2L72,195.5z M72,203.8v3.8l-4.8,8.3H65L72,203.8z M72,212.2v3.8h-2.2L72,212.2
		z M51.1,144L51.1,144L9.6,216H7.4l41.6-72h0L72,104v3.8L51.1,144z M55.9,144L55.9,144l-41.5,72h-2.2l41.6-72h-0.1L72,112.3v3.8
		C72,116.1,55.9,144,55.9,144z M60.7,144L60.7,144l-41.5,72H17l41.6-72h0L72,120.6v3.8C72,124.5,60.7,144,60.7,144z M65.5,144
		L65.5,144L24,216h-2.2l41.6-72h-0.1l8.7-15.1v3.8L65.5,144z M70.3,144L70.3,144l-41.5,72h-2.2l41.6-72h0l3.9-6.7v3.8L70.3,144z"/>
</g>
</svg>
