<svg width="20" height="20" viewBox="0 0 20 20" fill="none" xmlns="http://www.w3.org/2000/svg">
<path d="M19.4845 14.75L17.0001 12.2656C16.3165 11.582 15.1993 11.582 14.5157 12.2656L13.3868 13.3946C12.8673 13.9141 12.0236 13.9141 11.504 13.3946L6.60169 8.4922C6.08215 7.97267 6.08215 7.12892 6.60169 6.60939C6.78528 6.42579 7.30481 5.90626 7.73059 5.48048C8.41419 4.79688 8.422 3.68751 7.73059 2.99219L5.24622 0.515626C4.56262 -0.167969 3.44543 -0.167969 2.76184 0.515626C2.25012 1.02344 2.08606 1.1875 1.85559 1.41406C-0.617065 3.88672 -0.617065 7.90626 1.85559 10.3789L9.61731 18.1446C12.0939 20.6211 16.1056 20.6211 18.5822 18.1446L19.4845 17.2422C20.172 16.5508 20.172 15.4375 19.4845 14.75ZM3.58606 1.34375C3.81262 1.11719 4.18762 1.11328 4.41419 1.34375L6.89856 3.82032C7.12903 4.05079 7.12903 4.42188 6.89856 4.64844L6.4845 5.06251L3.1759 1.75L3.58606 1.34375ZM10.4454 17.3125L2.68372 9.54689C0.769653 7.63282 0.668091 4.63282 2.3595 2.59375L5.66419 5.89845C4.797 6.88282 4.83215 8.38282 5.77356 9.32423L10.672 14.2266C11.6134 15.168 13.1095 15.2031 14.0978 14.336L17.4025 17.6407C15.3673 19.3282 12.3712 19.2383 10.4454 17.3125ZM18.6564 16.4102L18.2423 16.8242L14.9259 13.5078L15.34 13.0938C15.5704 12.8672 15.9415 12.8633 16.1681 13.0938L18.6525 15.5781C18.8868 15.8086 18.8868 16.1797 18.6564 16.4102Z" fill="#DB6E0A"/>
</svg>
